<?xml version="1.0" standalone="no"?>
<!DOCTYPE svg PUBLIC "-//W3C//DTD SVG 20010904//EN"
 "http://www.w3.org/TR/2001/REC-SVG-20010904/DTD/svg10.dtd">
<svg version="1.0" xmlns="http://www.w3.org/2000/svg"
 width="2000.000000pt" height="2000.000000pt" viewBox="0 0 2000.000000 2000.000000"
 preserveAspectRatio="xMidYMid meet">
<metadata>
Created by potrace 1.14, written by Peter Selinger 2001-2017
</metadata>
<g transform="translate(0.000000,2000.000000) scale(0.100000,-0.100000)"
fill="#000000" stroke="none">
<path d="M2710 11170 l0 -550 795 0 795 0 0 -1170 0 -1170 668 2 667 3 3 1168
2 1167 1010 0 1010 0 0 550 0 550 -2475 0 -2475 0 0 -550z"/>
<path d="M12332 11168 l3 -553 1023 -3 1022 -2 0 -1165 0 -1165 670 0 670 0 0
1165 0 1165 790 0 790 0 0 549 0 549 -31 6 c-17 3 -1136 6 -2485 6 l-2454 0 2
-552z"/>
</g>
</svg>
